<svg t="1594556878816" class="icon" viewBox="0 0 1024 1024" version="1.1" xmlns="http://www.w3.org/2000/svg" p-id="1302" width="200" height="200"><path d="M451.413333 896h-4.266666A76.8 76.8 0 0 1 384 858.453333l-4.266667-8.106666 9.813334-285.013334A11.52 11.52 0 0 0 384 554.666667L132.693333 421.12 128 413.013333A74.24 74.24 0 0 1 128 341.333333a75.946667 75.946667 0 0 1 59.733333-42.666666l633.6-69.546667a75.52 75.52 0 0 1 74.666667 37.973333 74.24 74.24 0 0 1-4.693333 82.773334L512 865.28a75.093333 75.093333 0 0 1-60.586667 30.72z m-5.973333-65.28h5.12a12.8 12.8 0 0 0 10.666667-4.693333l378.453333-513.706667a11.52 11.52 0 0 0 0-13.226667 11.52 11.52 0 0 0-11.946667-6.4L192.853333 362.666667a11.946667 11.946667 0 0 0-9.386666 6.826666 8.96 8.96 0 0 0 0 5.12l232.96 123.733334a75.093333 75.093333 0 0 1 39.68 69.12z" p-id="1303"></path></svg>