<?xml version="1.0" standalone="no"?><!DOCTYPE svg PUBLIC "-//W3C//DTD SVG 1.1//EN" "http://www.w3.org/Graphics/SVG/1.1/DTD/svg11.dtd"><svg t="1596877171209" class="icon" viewBox="0 0 1024 1024" version="1.1" xmlns="http://www.w3.org/2000/svg" p-id="30400" xmlns:xlink="http://www.w3.org/1999/xlink" width="200" height="200"><defs><style type="text/css"></style></defs><path d="M314.623938 348.338262C246.223234 287.924467 186.782204 255.51605 180.996815 252.341766c-51.095735-27.646991-114.991003-9.522852-142.791588 41.060901a102.396263 102.396263 0 0 0 42.084864 140.231681c2.047925 1.126359 175.507194 95.535713 227.268505 264.95033 71.421393-116.475749 33.944361-271.964473 7.014144-350.246416m584.785055-289.474235a110.792756 110.792756 0 0 0-148.730571-46.436705 108.744831 108.744831 0 0 0-46.897489 147.348222c1.740736 3.27668 169.31222 330.330343-6.55336 709.350109a108.796029 108.796029 0 0 0 54.116424 144.839513c55.293982 25.240679 120.82759 1.228755 146.273061-53.604443 220.56155-475.169856 10.854004-884.294123 1.791935-901.496696m-216.97768 707.199788a611.203291 611.203291 0 0 0-71.77978-203.358978c-3.583869 98.146818-28.722152 203.051789-96.815667 298.997087a105.980132 105.980132 0 0 1-146.631448 25.394273 103.625018 103.625018 0 0 1-25.599065-145.249098c62.308126-87.855993 94.050967-239.607254 0.81917-463.957466-26.367038-56.471539-2.047925-116.424551 47.66546-140.590068 34.353946-16.690591 76.182819-11.570778 104.802575 4.09585 8.550088 4.65903 108.48884 61.386559 207.966809 176.019175 25.343075 107.362481 40.497722 269.04618-20.428054 448.649225" fill="#000000" p-id="30401"></path></svg>